# xmcd
#
# Track frame offsets:
#	150
#	14952
#	30878
#	49707
#	66592
#	82624
#	98537
#	111833
#	127692
#	142805
#	159214
#	172491
#	184752
#	200869
#	216849
#	232119
#	247663
#	263374
#	278965
#	290645
#	300800
#	316403
#	332007
#	346960
#	361818
#
# Disc length: 4969 seconds
# Revision: 0
# Processed by: cddbd v1.5.2PL0 Copyright (c) Steve Scherf et al.
# Submitted via: dBpowerAMP V12.0
#
DISCID=5f136719
DTITLE=Nic Pizzolatto - Gaveston 2
DYEAR=2014
DGENRE=Hörbuch
TTITLE0=026
TTITLE1=027
TTITLE2=028
TTITLE3=029
TTITLE4=030
TTITLE5=031
TTITLE6=032
TTITLE7=033
TTITLE8=034
TTITLE9=035
TTITLE10=036
TTITLE11=037
TTITLE12=038
TTITLE13=039
TTITLE14=040
TTITLE15=041
TTITLE16=042
TTITLE17=043
TTITLE18=044
TTITLE19=045
TTITLE20=046
TTITLE21=047
TTITLE22=048
TTITLE23=049
TTITLE24=050
EXTD=
EXTT0=
EXTT1=
EXTT2=
EXTT3=
EXTT4=
EXTT5=
EXTT6=
EXTT7=
EXTT8=
EXTT9=
EXTT10=
EXTT11=
EXTT12=
EXTT13=
EXTT14=
EXTT15=
EXTT16=
EXTT17=
EXTT18=
EXTT19=
EXTT20=
EXTT21=
EXTT22=
EXTT23=
EXTT24=
PLAYORDER=
